<?xml version="1.0" encoding="UTF-8"?>
<!DOCTYPE svg PUBLIC "-//W3C//DTD SVG 1.1//EN" "http://www.w3.org/Graphics/SVG/1.1/DTD/svg11.dtd">
<!-- Creator: CorelDRAW X7 -->
<svg xmlns="http://www.w3.org/2000/svg" xml:space="preserve" width="30mm" height="8mm" version="1.1" style="shape-rendering:geometricPrecision; text-rendering:geometricPrecision; image-rendering:optimizeQuality; fill-rule:evenodd; clip-rule:evenodd"
viewBox="0 0 3000 800"
 xmlns:xlink="http://www.w3.org/1999/xlink">
 <defs>
  <style type="text/css">
   <![CDATA[
    .fil1 {fill:#F2849E}
    .fil0 {fill:#F2849E;fill-rule:nonzero}
   ]]>
  </style>
 </defs>
 <g id="Capa_x0020_1">
  <metadata id="CorelCorpID_0Corel-Layer"/>
  <g id="_386533536">
   <path class="fil0" d="M79 72l72 0 0 323c0,48 12,85 35,112 23,26 55,39 98,39 41,0 74,-12 97,-36 24,-24 35,-58 35,-102l0 -336 72 0 0 331c0,64 -18,116 -55,154 -37,39 -86,58 -147,58 -62,0 -113,-19 -150,-58 -38,-40 -57,-97 -57,-174l0 -311z"/>
   <polygon id="1" class="fil0" points="706,50 1095,450 1095,72 1167,72 1167,623 778,224 778,598 706,598 "/>
   <polygon id="2" class="fil0" points="1390,72 1462,72 1462,598 1390,598 "/>
   <path id="3" class="fil0" d="M1672 331c0,-76 29,-141 86,-195 57,-54 126,-81 207,-81 78,0 146,27 203,82 56,54 85,119 85,194 0,80 -28,147 -84,202 -57,55 -125,82 -207,82 -80,0 -149,-27 -205,-83 -57,-55 -85,-122 -85,-201zm504 4c0,-58 -20,-106 -62,-146 -42,-40 -94,-60 -155,-60 -58,0 -108,20 -150,61 -41,40 -62,89 -62,145 0,58 22,106 64,146 43,40 95,60 157,60 57,0 105,-21 147,-61 41,-41 61,-89 61,-145z"/>
   <polygon id="4" class="fil0" points="2459,50 2849,450 2849,72 2921,72 2921,623 2531,224 2531,598 2459,598 "/>
   <rect class="fil1" x="1120" y="718" width="600" height="31.27"/>
  </g>
 </g>
</svg>
